<svg width="258" height="107" viewBox="0 0 258 107" fill="none" xmlns="http://www.w3.org/2000/svg">
<g clip-path="url(#clip0)">
<path d="M150.966 82.426C158.713 82.426 164.818 80.2033 169.283 75.758C173.748 71.3127 175.981 65.2338 175.981 57.5214C175.981 51.4158 174.286 46.3814 170.897 42.4181C167.508 38.4548 163.285 36.4731 158.229 36.4731C154.893 36.4731 151.289 37.3836 147.416 39.2046C147.416 31.7064 147.577 24.7439 147.9 18.3169L128.211 22.0124V23.7798L130.148 24.1012C131.547 24.2083 132.515 24.6903 133.053 25.5472C133.591 26.4042 133.967 27.7967 134.183 29.7248C134.505 33.4738 134.64 42.0164 134.586 55.3523C134.532 68.6883 134.398 76.9631 134.183 80.1765C141.283 81.6762 146.878 82.426 150.966 82.426ZM35.4166 81.3013V78.7305L31.8662 78.4091C29.8221 78.0878 28.3696 77.3112 27.5089 76.0793C26.6482 74.8475 26.1103 72.7855 25.8951 69.8934C25.4647 64.7518 25.2496 58.8604 25.2496 52.2192L32.189 52.3799C35.9546 52.487 38.4829 55.3791 39.774 61.0563H42.3561V40.1686H39.774C38.4829 45.7387 35.9546 48.5772 32.189 48.6844L25.2496 48.845C25.2496 37.2765 25.4647 28.975 25.8951 23.9405H36.0622C43.2706 23.9405 48.2734 28.6001 51.0707 37.9192L54.137 36.9551L53.8142 19.6023H2.01052V22.1731L4.75402 22.4944C6.7982 22.8158 8.25064 23.5924 9.11134 24.8242C9.97205 26.056 10.51 28.118 10.7252 31.0102C11.801 44.9353 11.801 57.8964 10.7252 69.8934C10.51 72.7855 9.97205 74.8475 9.11134 76.0793C8.25064 77.3112 6.7982 78.0878 4.75402 78.4091L2.01052 78.7305V81.3013H35.4166ZM69.7911 82.426C76.8919 82.426 82.4865 80.2033 86.5748 75.758C90.6632 71.3127 92.7073 65.7694 92.7073 59.1282C92.7073 52.3799 90.7977 46.8366 86.9783 42.4984C83.1589 38.1602 77.6988 35.9911 70.598 35.9911C63.4972 35.9911 57.9026 38.2405 53.8142 42.7394C49.7259 47.1312 47.6817 52.6477 47.6817 59.2889C47.6817 66.0372 49.5914 71.5805 53.4108 75.9187C57.2301 80.2569 62.6902 82.426 69.7911 82.426ZM239.565 82.426C245.483 82.426 250.109 81.1138 253.444 78.4895C256.779 75.8651 258.447 72.1964 258.447 67.4833C258.447 64.3769 257.613 61.8597 255.945 59.9316C254.278 58.0035 251.507 56.2896 247.634 54.79C243.331 53.1832 240.399 51.7639 238.839 50.5321C237.279 49.3003 236.499 47.7203 236.499 45.7922C236.499 43.8641 237.064 42.2842 238.193 41.0523C239.323 39.8205 240.802 39.2046 242.631 39.2046C247.796 39.2046 251.561 42.9001 253.928 50.2911L256.188 49.6484L255.703 38.4012C252.153 36.7944 247.742 35.9911 242.47 35.9911C237.091 35.9911 232.76 37.3568 229.479 40.0883C226.197 42.8197 224.557 46.1671 224.557 50.1304C224.557 53.6653 225.552 56.3699 227.542 58.2445C229.533 60.119 232.572 61.8061 236.66 63.3057C240.318 64.5911 242.82 65.8497 244.165 67.0816C245.509 68.3134 246.182 69.8398 246.182 71.6608C246.182 73.4818 245.509 75.0885 244.165 76.481C242.82 77.8735 241.018 78.5698 238.758 78.5698C233.056 78.5698 228.753 74.4458 225.848 66.1979L223.588 66.8406L224.072 79.6945C228.699 81.5155 233.863 82.426 239.565 82.426ZM120.465 81.3013V78.8911L116.915 78.5698C114.44 78.2484 113.042 76.3739 112.719 72.9462C112.073 65.4481 112.019 57.575 112.557 49.3271C113.31 48.0417 115.005 47.2651 117.641 46.9973C120.277 46.7295 123.155 47.5061 126.275 49.3271L131.116 37.2765C129.287 36.4195 127.297 35.9911 125.145 35.9911C122.993 35.9911 120.707 36.8748 118.286 38.6422C115.866 40.4096 113.956 42.9536 112.557 46.2742L112.719 35.9911L93.0301 39.8473V41.6147L94.9667 41.7754C97.4412 42.0967 98.8399 43.9712 99.1626 47.399C99.9157 55.4327 99.9157 63.9484 99.1626 72.9462C98.8399 76.3739 97.4412 78.2484 94.9667 78.5698L93.0301 78.8911V81.3013H120.465ZM202.286 82.426C206.267 82.426 209.817 81.6226 212.937 80.0159C216.057 78.4091 218.478 76.481 220.199 74.2316L218.908 72.6248C216.111 74.7672 212.83 75.8383 209.064 75.8383C203.9 75.8383 199.919 74.1245 197.122 70.6967C194.324 67.269 193.033 62.7701 193.248 57.2001H220.845C220.845 50.9874 219.258 45.9261 216.084 42.0164C212.91 38.1066 208.365 36.1518 202.447 36.1518C195.239 36.1518 189.644 38.428 185.664 42.9804C181.683 47.5329 179.692 53.0761 179.692 59.6102C179.692 66.2514 181.817 71.7144 186.067 75.999C190.317 80.2837 195.723 82.426 202.286 82.426ZM70.4366 79.5338C67.5317 79.5338 65.3262 77.6057 63.8199 73.7496C62.3137 69.8934 61.5606 65.0196 61.5606 59.1282C61.5606 45.6315 64.3579 38.8832 69.9524 38.8832C72.8573 38.8832 75.0629 40.7845 76.5691 44.5872C78.0754 48.3898 78.8285 53.2368 78.8285 59.1282C78.8285 72.732 76.0312 79.5338 70.4366 79.5338ZM193.41 53.9866C193.517 50.1304 194.271 46.6491 195.669 43.5428C197.068 40.4364 198.951 38.8832 201.318 38.8832C205.191 38.8832 207.127 43.8106 207.127 53.6653L193.41 53.9866ZM151.289 79.2125C150.106 79.2125 148.976 79.1054 147.9 78.8911C147.577 74.7136 147.416 62.4488 147.416 42.0967C148.599 41.6682 150.159 41.454 152.096 41.454C155.216 41.454 157.691 43.034 159.52 46.1939C161.349 49.3538 162.263 53.3439 162.263 58.1641C162.263 64.1627 161.241 69.1703 159.197 73.1872C157.153 77.2041 154.517 79.2125 151.289 79.2125Z" fill="black"/>
</g>
<defs>
<clipPath id="clip0">
<rect width="258" height="106.848" fill="white"/>
</clipPath>
</defs>
</svg>
