<svg width="258" height="99" viewBox="0 0 258 99" fill="none" xmlns="http://www.w3.org/2000/svg">
<g clip-path="url(#clip0)">
<path fill-rule="evenodd" clip-rule="evenodd" d="M42.2182 17.0992C41.3386 9.91629 37.9671 4.05265 34.5955 4.05265C30.9307 4.05265 27.8523 9.18333 26.6796 17.0992H26.0932C18.9102 15.6333 14.9523 13.4345 14.9523 10.7958C14.9523 6.83787 23.4546 3.75946 34.0091 3.75946C44.8568 3.75946 53.9455 6.83787 53.9455 10.7958C53.9455 13.4345 49.4011 16.0731 42.2182 17.0992ZM68.1648 22.8163C68.1648 10.5026 53.3591 0.974243 34.3023 0.974243C15.5386 0.974243 0.732956 10.3561 0.732956 22.5231C0.732956 34.9833 15.5386 44.5117 34.5955 44.5117C53.0659 44.5117 68.1648 34.9833 68.1648 22.8163ZM36.9409 41.8731C40.8989 38.2083 42.658 31.9049 42.658 22.5231L42.9511 22.2299C52.6261 21.0572 59.2227 16.8061 59.2227 12.2617V11.9686C62.008 15.047 63.1807 18.272 63.1807 21.9367C63.3273 32.1981 51.7466 40.9935 36.9409 41.8731ZM9.52841 11.6754C9.23523 11.9686 9.23523 11.9686 9.23523 12.2617C9.23523 16.8061 15.8318 20.764 25.9466 22.2299L26.2398 22.5231V23.1095C26.2398 32.1981 28.292 38.5015 31.9568 41.8731C16.5648 40.7004 5.57046 32.1981 5.57046 21.6436C5.57046 18.272 6.74318 14.6072 9.52841 11.6754ZM39.1398 17.6856H38.8466C37.6739 17.6856 36.0614 17.6856 34.5955 17.6856C32.6898 17.6856 31.2239 17.6856 30.0511 17.6856L29.4648 17.3924C30.3443 12.2617 32.25 9.18333 34.3023 9.18333C36.7943 9.18333 38.2602 11.9686 39.1398 17.3924V17.6856ZM39.7261 22.8163C39.433 30.1458 37.3807 35.2765 34.5955 35.2765C31.5171 35.2765 29.4648 30.1458 29.1716 22.8163H29.4648C30.9307 22.8163 32.8364 23.1095 34.8886 23.1095C37.3807 23.1095 37.967 23.1095 39.7261 22.8163Z" fill="#EE202E"/>
<path fill-rule="evenodd" clip-rule="evenodd" d="M100.561 13.4343H90.8864V38.2082H83.8501V13.4343H74.4682V7.71729H100.561V13.4343Z" fill="#EE202E"/>
<path fill-rule="evenodd" clip-rule="evenodd" d="M127.094 23.1095C127.094 29.1197 123.43 33.3708 118.299 33.3708C112.875 33.3708 109.21 29.4129 109.21 23.1095C109.504 17.0993 112.875 12.8481 118.299 12.8481C123.576 12.8481 127.094 17.0993 127.094 23.1095ZM134.424 23.1095C134.424 14.0208 127.094 6.83789 118.299 6.83789C109.21 6.83789 102.027 14.0208 102.027 23.4027C102.027 32.1981 109.357 39.5277 118.152 39.5277C127.388 39.3811 134.424 32.1981 134.424 23.1095Z" fill="#EE202E"/>
<path fill-rule="evenodd" clip-rule="evenodd" d="M154.067 27.0673V38.2082H147.031V27.0673L135.01 7.71729H142.78L150.402 20.3241L158.318 7.71729H166.381L154.067 27.0673Z" fill="#EE202E"/>
<path fill-rule="evenodd" clip-rule="evenodd" d="M191.301 23.1095C191.301 29.1197 187.93 33.3708 182.506 33.3708C177.082 33.3708 173.71 29.4129 173.71 23.1095C173.71 17.0993 177.375 12.8481 182.799 12.8481C187.93 12.8481 191.301 17.0993 191.301 23.1095ZM198.777 23.1095C198.777 14.0208 191.594 6.83789 182.506 6.83789C173.71 6.83789 166.381 14.0208 166.381 23.4027C166.381 32.1981 173.417 39.5277 182.506 39.5277C191.594 39.5277 198.777 32.1981 198.777 23.1095Z" fill="#EE202E"/>
<path fill-rule="evenodd" clip-rule="evenodd" d="M226.336 13.4343H216.661V38.2082H209.625V13.4343H200.39V7.71729H226.336V13.4343Z" fill="#EE202E"/>
<path fill-rule="evenodd" clip-rule="evenodd" d="M240.995 14.3139L245.247 26.0411H236.451L240.995 14.3139ZM245.247 7.71729H236.744L224.284 38.2082H231.907L234.399 31.465H247.445L250.231 38.2082H257.707L245.247 7.71729Z" fill="#EE202E"/>
<rect y="61.9995" width="258" height="36.226" fill="#EE202E"/>
<path d="M13.2537 72.9559H18.9085L21.1174 81.4381L23.3263 72.9559H28.9811V86.8279H25.4468V76.2251L22.7078 86.8279H19.527L16.7879 76.2251V86.8279H13.2537V72.9559Z" fill="white"/>
<path d="M40.379 84.5306H35.5194L34.8125 86.8279H30.3947L35.6077 72.9559H40.2906L45.592 86.8279H41.0858L40.379 84.5306ZM39.4954 81.5265L37.9933 76.4902L36.4029 81.5265H39.4954Z" fill="white"/>
<path d="M44.7968 72.9559H57.8735V76.4018H53.4557V86.8279H49.1262V76.4018H44.7084V72.9559H44.7968Z" fill="white"/>
<path d="M59.9058 72.9559H71.3921V75.96H64.1469V78.1689H70.862V80.9963H64.1469V83.7354H71.5688V86.8279H59.9058V72.9559Z" fill="white"/>
<path d="M74.2195 86.8275V72.9556H81.3764C82.7017 72.9556 83.762 73.0439 84.3805 73.309C84.999 73.5741 85.6175 73.9275 86.0593 74.546C86.501 75.1645 86.6777 75.8713 86.6777 76.8432C86.6777 77.6384 86.501 78.2569 86.1476 78.8754C85.7942 79.4939 85.4408 79.759 84.9106 80.1124C84.5572 80.3775 84.0271 80.5542 83.4086 80.6426C83.9387 80.8193 84.2921 80.996 84.5572 81.1727C84.7339 81.261 84.9106 81.5261 85.264 81.8795C85.5291 82.233 85.7942 82.498 85.8825 82.7631L88.0031 86.8275H83.0551L80.7579 82.5864C80.4928 82.0563 80.2277 81.7028 79.9627 81.5261C79.6093 81.3494 79.3442 81.1727 78.9024 81.1727H78.549V86.8275H74.2195ZM78.4606 78.522H80.3161C80.4928 78.522 80.9346 78.4336 81.4647 78.3453C81.7298 78.2569 81.9949 78.1686 82.1716 77.9035C82.3483 77.6384 82.4367 77.3734 82.4367 77.1083C82.4367 76.6665 82.2599 76.3131 81.9949 76.048C81.7298 75.783 81.1997 75.6946 80.4045 75.6946H78.549V78.522H78.4606Z" fill="white"/>
<path d="M89.5933 72.9556H93.9228V86.8275H89.5933V72.9556Z" fill="white"/>
<path d="M105.674 84.5302H100.815L100.108 86.8275H95.6899L100.903 72.9556H105.586L110.799 86.8275H106.293L105.674 84.5302ZM104.791 81.5261L103.289 76.4898L101.787 81.5261H104.791Z" fill="white"/>
<path d="M112.389 72.9556H116.719V83.4699H123.434V86.8275H112.389V72.9556Z" fill="white"/>
<path d="M132.182 72.9556H136.511V77.8152H141.194V72.9556H145.523V86.8275H141.194V81.1727H136.511V86.8275H132.182V72.9556Z" fill="white"/>
<path d="M157.098 84.5302H152.238L151.531 86.8275H147.113L152.326 72.9556H157.009L162.222 86.8275H157.716L157.098 84.5302ZM156.126 81.5261L154.624 76.5782L153.122 81.6145H156.126V81.5261Z" fill="white"/>
<path d="M163.813 72.9556H167.789L173.002 80.6426V72.9556H177.066V86.8275H173.002L167.877 79.2289V86.8275H163.813V72.9556Z" fill="white"/>
<path d="M180.158 72.9556H186.52C187.757 72.9556 188.817 73.1323 189.612 73.4857C190.408 73.8391 191.026 74.2809 191.556 74.9878C192.086 75.6063 192.44 76.4015 192.617 77.1967C192.882 78.0802 192.97 78.9638 192.97 79.9357C192.97 81.4378 192.793 82.5864 192.44 83.3816C192.086 84.1768 191.645 84.8837 191.026 85.4138C190.408 85.9439 189.789 86.2974 189.082 86.5624C188.11 86.8275 187.315 86.9158 186.52 86.9158H180.158V72.9556ZM184.488 76.048V83.6467H185.548C186.432 83.6467 187.05 83.5583 187.492 83.3816C187.934 83.2049 188.199 82.8515 188.375 82.3213C188.552 81.7912 188.729 80.996 188.729 79.9357C188.729 78.4337 188.464 77.4617 188.022 76.9316C187.58 76.4015 186.785 76.1364 185.636 76.1364H184.488V76.048Z" fill="white"/>
<path d="M195.444 72.9556H199.774V83.4699H206.489V86.8275H195.444V72.9556Z" fill="white"/>
<path d="M208.697 72.9559H213.027V86.8279H208.697V72.9559Z" fill="white"/>
<path d="M216.296 72.9559H220.272L225.485 80.6429V72.9559H229.549V86.8279H225.485L220.272 79.2292V86.8279H216.208V72.9559H216.296Z" fill="white"/>
<path d="M239.622 81.7913V78.8756H246.249V84.7954C245.012 85.679 243.863 86.2091 242.891 86.5626C241.919 86.916 240.771 87.0043 239.445 87.0043C237.767 87.0043 236.441 86.7393 235.381 86.1208C234.321 85.5906 233.526 84.7071 232.995 83.6468C232.465 82.4982 232.112 81.2612 232.112 79.8475C232.112 78.3454 232.465 77.0201 233.084 75.8715C233.702 74.7228 234.586 73.9276 235.823 73.3091C236.795 72.8674 238.032 72.6023 239.622 72.6023C241.124 72.6023 242.273 72.779 243.068 73.0441C243.863 73.3091 244.482 73.7509 244.923 74.3694C245.454 74.9879 245.807 75.6948 246.072 76.5783L241.919 77.2852C241.743 76.755 241.478 76.4016 241.036 76.0482C240.594 75.7831 240.064 75.6064 239.445 75.6064C238.473 75.6064 237.767 75.9598 237.148 76.5783C236.53 77.1968 236.265 78.2571 236.265 79.6708C236.265 81.1728 236.53 82.2331 237.148 82.94C237.678 83.5585 238.473 83.9119 239.534 83.9119C239.976 83.9119 240.506 83.8235 240.947 83.7352C241.389 83.5585 241.919 83.3817 242.449 83.0283V81.703H239.622V81.7913Z" fill="white"/>
</g>
<defs>
<clipPath id="clip0">
<rect width="258" height="98.2159" fill="white" transform="translate(0 0.534424)"/>
</clipPath>
</defs>
</svg>
